<?xml version="1.0" encoding="UTF-8" standalone="no"?>
<!-- Created with Inkscape (http://www.inkscape.org/) -->

<svg
   xmlns:dc="http://purl.org/dc/elements/1.1/"
   xmlns:cc="http://creativecommons.org/ns#"
   xmlns:rdf="http://www.w3.org/1999/02/22-rdf-syntax-ns#"
   xmlns:svg="http://www.w3.org/2000/svg"
   xmlns="http://www.w3.org/2000/svg"
   xmlns:sodipodi="http://sodipodi.sourceforge.net/DTD/sodipodi-0.dtd"
   xmlns:inkscape="http://www.inkscape.org/namespaces/inkscape"
   width="60"
   height="69"
   viewBox="0 0 60.000002 69.000002"
   id="svg2"
   version="1.1"
   inkscape:version="0.91 r13725"
   sodipodi:docname="logo.svg">
  <defs
     id="defs4" />
  <sodipodi:namedview
     id="base"
     pagecolor="#ffffff"
     bordercolor="#666666"
     borderopacity="1.0"
     inkscape:pageopacity="0.0"
     inkscape:pageshadow="2"
     inkscape:zoom="7.9195959"
     inkscape:cx="27.705675"
     inkscape:cy="43.016173"
     inkscape:document-units="px"
     inkscape:current-layer="layer1"
     showgrid="false"
     units="px"
     inkscape:window-width="1920"
     inkscape:window-height="1080"
     inkscape:window-x="0"
     inkscape:window-y="0"
     inkscape:window-maximized="0" />
  <metadata
     id="metadata7">
    <rdf:RDF>
      <cc:Work
         rdf:about="">
        <dc:format>image/svg+xml</dc:format>
        <dc:type
           rdf:resource="http://purl.org/dc/dcmitype/StillImage" />
        <dc:title></dc:title>
      </cc:Work>
    </rdf:RDF>
  </metadata>
  <g
     inkscape:groupmode="layer"
     id="layer2"
     inkscape:label="book"
     transform="translate(0,-21)">
    <path
       style="opacity:1;fill:#dfc46f;fill-opacity:1;fill-rule:nonzero;stroke:none;stroke-width:0.99999982;stroke-linecap:round;stroke-linejoin:round;stroke-miterlimit:4;stroke-dasharray:none;stroke-dashoffset:0;stroke-opacity:1"
       clip-path="none"
       d="m 2.7788385,21.436661 0,68.183595 56.8203135,0 0,-68.183595 -56.8203135,0 z m 5.28711,5.332032 a 3.4092648,3.4092648 0 0 1 3.4296875,3.38086 l 0,0.0293 a 3.4092648,3.4092648 0 0 1 -3.4023445,3.408204 3.4092648,3.4092648 0 0 1 -3.416015,-3.394532 3.4092648,3.4092648 0 0 1 3.388672,-3.423828 z m 0,10.140625 a 3.4092648,3.4092648 0 0 1 3.4296875,3.380859 l 0,0.02734 a 3.4092648,3.4092648 0 0 1 -3.4023445,3.410156 3.4092648,3.4092648 0 0 1 -3.416015,-3.394531 3.4092648,3.4092648 0 0 1 3.388672,-3.423828 z m 0,10.140625 a 3.4092648,3.4092648 0 0 1 3.4296875,3.38086 l 0,0.02734 A 3.4092648,3.4092648 0 0 1 8.0932915,53.8683 3.4092648,3.4092648 0 0 1 4.6772765,50.471815 3.4092648,3.4092648 0 0 1 8.0659485,47.04994 Z m 0,10.138672 a 3.4092648,3.4092648 0 0 1 3.4296875,3.382812 l 0,0.02734 a 3.4092648,3.4092648 0 0 1 -3.4023445,3.408203 3.4092648,3.4092648 0 0 1 -3.416015,-3.394531 3.4092648,3.4092648 0 0 1 3.388672,-3.423828 z m 0,10.140625 a 3.4092648,3.4092648 0 0 1 3.4296875,3.380859 l 0,0.0293 a 3.4092648,3.4092648 0 0 1 -3.4023445,3.408203 3.4092648,3.4092648 0 0 1 -3.416015,-3.394531 3.4092648,3.4092648 0 0 1 3.388672,-3.423828 z m 0.125,10.140625 a 3.4092648,3.4092648 0 0 1 3.4296875,3.380859 l 0,0.02734 a 3.4092648,3.4092648 0 0 1 -3.4023445,3.410156 3.4092648,3.4092648 0 0 1 -3.416015,-3.394531 3.4092648,3.4092648 0 0 1 3.388672,-3.423828 z"
       id="rect5384"
       inkscape:connector-curvature="0" />
  </g>
  <g
     inkscape:label="Layer 1"
     inkscape:groupmode="layer"
     id="layer1"
     transform="translate(0,-983.36215)">
    <g
       transform="translate(18.935797,1001.8908)"
       id="Link_x5F_2"
       style="fill:#59509b;fill-opacity:1">
      <g
         id="g4812"
         style="fill:#59509b;fill-opacity:1">
        <path
           inkscape:connector-curvature="0"
           d="m 31.708,0.293 c -0.391,-0.391 -1.023,-0.391 -1.414,0 L 25.899,4.688 24.91,3.698 c -0.982,-0.982 -2.694,-0.982 -3.677,0 L 15.01,9.919 c -0.491,0.491 -0.761,1.145 -0.762,1.838 0,0.695 0.271,1.349 0.762,1.84 L 16,14.586 14.586,16 13.596,15.011 C 12.614,14.029 10.9,14.03 9.919,15.01 l -6.223,6.223 c -1.014,1.016 -1.014,2.664 0,3.678 l 0.99,0.99 -4.394,4.394 c -0.391,0.392 -0.391,1.022 0,1.414 C 0.488,31.902 0.745,32 1,32 1.255,32 1.512,31.902 1.707,31.707 l 4.394,-4.395 0.99,0.992 c 0.491,0.489 1.145,0.76 1.839,0.76 0.693,0 1.347,-0.271 1.838,-0.762 l 6.224,-6.224 c 1.014,-1.015 1.014,-2.662 0,-3.677 L 16,17.414 17.415,16 l 0.99,0.99 c 0.49,0.49 1.145,0.762 1.839,0.762 0.694,0 1.348,-0.271 1.838,-0.762 l 6.224,-6.224 c 1.014,-1.015 1.014,-2.663 0,-3.678 L 27.316,6.1 31.71,1.705 C 32.099,1.316 32.099,0.685 31.708,0.293 Z M 15.577,20.667 9.355,26.891 c -0.227,0.227 -0.622,0.226 -0.849,0 l -0.99,-0.99 2.369,-2.369 c 0.391,-0.393 0.391,-1.024 0,-1.415 -0.391,-0.39 -1.023,-0.39 -1.414,0 l -2.369,2.37 -0.99,-0.989 c -0.233,-0.233 -0.233,-0.615 0,-0.849 l 6.223,-6.225 c 0.113,-0.111 0.264,-0.176 0.424,-0.176 0.16,0 0.312,0.063 0.425,0.177 l 0.99,0.99 -2.121,2.121 c -0.391,0.391 -0.391,1.022 0,1.413 0.195,0.195 0.451,0.293 0.707,0.293 0.256,0 0.512,-0.098 0.707,-0.293 l 2.121,-2.121 0.99,0.99 c 0.233,0.234 0.233,0.616 -10e-4,0.849 z M 26.892,9.354 20.668,15.577 c -0.228,0.227 -0.622,0.228 -0.849,0 l -0.99,-0.991 2.121,-2.12 c 0.391,-0.391 0.391,-1.022 0,-1.414 -0.391,-0.391 -1.023,-0.391 -1.414,0 l -2.121,2.121 -0.991,-0.989 c -0.113,-0.113 -0.176,-0.265 -0.176,-0.426 0,-0.158 0.062,-0.31 0.176,-0.423 l 6.223,-6.223 c 0.113,-0.114 0.266,-0.177 0.426,-0.177 0.16,0 0.311,0.062 0.424,0.176 l 0.99,0.991 -2.369,2.369 c -0.391,0.391 -0.391,1.023 0,1.413 0.195,0.195 0.451,0.294 0.707,0.294 0.256,0 0.512,-0.099 0.707,-0.294 l 2.369,-2.369 0.99,0.988 c 0.233,0.235 0.233,0.616 0.001,0.851 z"
           id="path4814"
           style="fill:#59509b;fill-opacity:1" />
      </g>
    </g>
    <path
       style="opacity:1;fill:none;fill-opacity:0.94117647;fill-rule:nonzero;stroke:#59509b;stroke-width:3;stroke-linecap:round;stroke-linejoin:round;stroke-miterlimit:4;stroke-dasharray:none;stroke-dashoffset:0;stroke-opacity:0.94117647"
       id="path5386"
       sodipodi:type="arc"
       sodipodi:cx="34.93589"
       sodipodi:cy="1017.8906"
       sodipodi:rx="21.503582"
       sodipodi:ry="21.759577"
       sodipodi:start="0"
       sodipodi:end="6.2750199"
       sodipodi:open="true"
       d="m 56.439472,1017.8906 a 21.503582,21.759577 0 0 1 -21.459685,21.7596 21.503582,21.759577 0 0 1 -21.5473,-21.6707 21.503582,21.759577 0 0 1 21.371715,-21.84804 21.503582,21.759577 0 0 1 21.634553,21.58154" />
  </g>
  <g
     inkscape:groupmode="layer"
     id="layer3"
     inkscape:label="spring"
     transform="translate(0,-21)">
    <path
       style="fill:none;fill-rule:evenodd;stroke:#545454;stroke-width:2;stroke-linecap:round;stroke-linejoin:miter;stroke-miterlimit:4;stroke-dasharray:none;stroke-opacity:0.97058835"
       d="m 8.0862455,40.318378 -6.944799,0"
       id="path5391"
       inkscape:connector-curvature="0" />
    <path
       style="fill:none;fill-rule:evenodd;stroke:#545454;stroke-width:2;stroke-linecap:round;stroke-linejoin:miter;stroke-miterlimit:4;stroke-dasharray:none;stroke-opacity:0.97058835"
       d="m 8.0862415,50.45849 -6.944799,0"
       id="path5391-1"
       inkscape:connector-curvature="0" />
    <path
       style="fill:none;fill-rule:evenodd;stroke:#545454;stroke-width:2;stroke-linecap:round;stroke-linejoin:miter;stroke-miterlimit:4;stroke-dasharray:none;stroke-opacity:0.97058835"
       d="m 8.0862445,60.598598 -6.944799,0"
       id="path5391-5"
       inkscape:connector-curvature="0" />
    <path
       style="fill:none;fill-rule:evenodd;stroke:#545454;stroke-width:2;stroke-linecap:round;stroke-linejoin:miter;stroke-miterlimit:4;stroke-dasharray:none;stroke-opacity:0.97058835"
       d="m 8.0862455,30.178272 -6.944799,0"
       id="path5391-9"
       inkscape:connector-curvature="0" />
    <path
       style="fill:none;fill-rule:evenodd;stroke:#545454;stroke-width:2;stroke-linecap:round;stroke-linejoin:miter;stroke-miterlimit:4;stroke-dasharray:none;stroke-opacity:0.97058835"
       d="m 8.0862415,70.73871 -6.944799,0"
       id="path5391-1-9"
       inkscape:connector-curvature="0" />
    <path
       style="fill:none;fill-rule:evenodd;stroke:#545454;stroke-width:2;stroke-linecap:round;stroke-linejoin:miter;stroke-miterlimit:4;stroke-dasharray:none;stroke-opacity:0.97058835"
       d="m 8.2120485,80.878816 -6.944799,0"
       id="path5391-5-4"
       inkscape:connector-curvature="0" />
  </g>
</svg>
