<?xml version="1.0" encoding="utf-8"?>
<!-- Generator: Adobe Illustrator 16.0.4, SVG Export Plug-In . SVG Version: 6.00 Build 0)  -->
<!DOCTYPE svg PUBLIC "-//W3C//DTD SVG 1.1//EN" "http://www.w3.org/Graphics/SVG/1.1/DTD/svg11.dtd">
<svg version="1.1" id="Capa_1" xmlns="http://www.w3.org/2000/svg" xmlns:xlink="http://www.w3.org/1999/xlink" x="0px" y="0px"
	 width="66.137px" height="66.135px" viewBox="0 0 66.137 66.135" enable-background="new 0 0 66.137 66.135" xml:space="preserve">
<path d="M33.068,0C14.834,0,0,14.834,0,33.068c0,18.233,14.834,33.067,33.068,33.067s33.068-14.834,33.068-33.067
	C66.136,14.834,51.302,0,33.068,0z M33.068,62.135C17.04,62.135,4,49.097,4,33.068C4,17.04,17.04,4,33.068,4
	s29.068,13.041,29.068,29.068S49.096,62.135,33.068,62.135z M42.522,24.212l2.828,2.829l-15.08,15.08l-0.207-0.206l-0.026,0.025
	l-9.454-9.454l2.828-2.828l6.833,6.832L42.522,24.212z"/>
</svg>
