<?xml version="1.0" encoding="iso-8859-1"?>
<!-- Generator: Adobe Illustrator 16.0.4, SVG Export Plug-In . SVG Version: 6.00 Build 0)  -->
<!DOCTYPE svg PUBLIC "-//W3C//DTD SVG 1.1//EN" "http://www.w3.org/Graphics/SVG/1.1/DTD/svg11.dtd">
<svg version="1.1" id="Capa_1" xmlns="http://www.w3.org/2000/svg" xmlns:xlink="http://www.w3.org/1999/xlink" x="0px" y="0px"
	 width="32.025px" height="32px" viewBox="0 0 32.025 32" style="enable-background:new 0 0 32.025 32;" xml:space="preserve">
<g id="Prize">
	<g>
		<path d="M27.904,4.655c-0.029-0.013-0.062-0.009-0.095-0.02C27.946,3.472,28.026,2.263,28.026,1c0-0.552-0.446-1-1-1h-22
			c-0.552,0-1,0.448-1,1c0,1.261,0.08,2.468,0.218,3.631C4.202,4.643,4.162,4.639,4.121,4.655c-3.395,1.398-5.019,5.299-3.62,8.694
			c0.678,1.645,1.956,2.928,3.598,3.611c0.826,0.345,1.692,0.517,2.562,0.517c0.674,0,1.346-0.107,1.999-0.313
			c1.089,1.739,2.229,3.188,3.261,4.338c0.048,0.138,0.118,0.269,0.229,0.378c0.566,0.566,0.879,1.319,0.879,2.121
			s-0.312,1.555-0.879,2.121C11.582,26.688,10.827,27,10.026,27c-2.206,0-4,1.794-4,4c0,0.553,0.448,1,1,1h18c0.554,0,1-0.447,1-1
			c0-2.206-1.793-4-4-4c-0.801,0-1.555-0.312-2.121-0.879c-0.565-0.566-0.879-1.319-0.879-2.121s0.312-1.555,0.879-2.121
			c0.111-0.109,0.183-0.24,0.229-0.378c1.031-1.149,2.17-2.594,3.256-4.33c0.646,0.202,1.312,0.306,1.978,0.306
			c0.866,0,1.733-0.172,2.561-0.516c1.643-0.684,2.919-1.967,3.598-3.611C32.923,9.954,31.298,6.054,27.904,4.655z M4.868,15.114
			c-1.148-0.479-2.043-1.375-2.519-2.526c-0.93-2.257,0.064-4.815,2.201-5.906c0.627,3.353,1.76,6.252,3.065,8.688
			C6.702,15.564,5.751,15.482,4.868,15.114z M22.026,29c0.74,0,1.387,0.402,1.731,1H8.296c0.346-0.598,0.991-1,1.729-1
			c1.336,0,2.591-0.521,3.536-1.465c0.834-0.835,1.315-1.919,1.421-3.082c0.245,0.199,0.408,0.32,0.455,0.355
			C15.614,24.936,15.82,25,16.026,25c0.207,0,0.414-0.064,0.588-0.191c0.049-0.035,0.212-0.156,0.456-0.354
			c0.105,1.163,0.588,2.247,1.422,3.083C19.438,28.479,20.691,29,22.026,29z M16.026,22.715C13.86,20.866,6.448,13.709,6.044,2
			h19.965C25.606,13.709,18.192,20.866,16.026,22.715z M29.675,12.588c-0.475,1.151-1.369,2.048-2.518,2.526
			c-0.875,0.365-1.818,0.45-2.726,0.262c1.307-2.434,2.438-5.331,3.067-8.681C29.618,7.793,30.6,10.34,29.675,12.588z"/>
	</g>
</g>
</svg>
