<?xml version="1.0" encoding="iso-8859-1"?>
<!-- Generator: Adobe Illustrator 16.0.4, SVG Export Plug-In . SVG Version: 6.00 Build 0)  -->
<!DOCTYPE svg PUBLIC "-//W3C//DTD SVG 1.1//EN" "http://www.w3.org/Graphics/SVG/1.1/DTD/svg11.dtd">
<svg version="1.1" id="Capa_1" xmlns="http://www.w3.org/2000/svg" xmlns:xlink="http://www.w3.org/1999/xlink" x="0px" y="0px"
	 width="66.135px" height="66.135px" viewBox="0 0 66.135 66.135" style="enable-background:new 0 0 66.135 66.135;"
	 xml:space="preserve">
<g>
	<path d="M33.066,66.135C14.833,66.135,0,51.301,0,33.068C0,14.834,14.833,0,33.066,0s33.068,14.834,33.068,33.068
		C66.135,51.301,51.3,66.135,33.066,66.135z M33.066,4C17.039,4,4,17.04,4,33.068c0,16.027,13.039,29.066,29.066,29.066
		s29.068-13.039,29.068-29.066C62.135,17.04,49.094,4,33.066,4z"/>
	<rect x="33.066" y="31.067" width="19.428" height="4"/>
	<rect x="30.504" y="19.607" width="4" height="15.445"/>
</g>
<g>
</g>
<g>
</g>
<g>
</g>
<g>
</g>
<g>
</g>
<g>
</g>
<g>
</g>
<g>
</g>
<g>
</g>
<g>
</g>
<g>
</g>
<g>
</g>
<g>
</g>
<g>
</g>
<g>
</g>
</svg>
