<?xml version="1.0" encoding="iso-8859-1"?>
<!-- Generator: Adobe Illustrator 16.0.4, SVG Export Plug-In . SVG Version: 6.00 Build 0)  -->
<!DOCTYPE svg PUBLIC "-//W3C//DTD SVG 1.1//EN" "http://www.w3.org/Graphics/SVG/1.1/DTD/svg11.dtd">
<svg version="1.1" id="Capa_1" xmlns="http://www.w3.org/2000/svg" xmlns:xlink="http://www.w3.org/1999/xlink" x="0px" y="0px"
	 width="66.645px" height="66.344px" viewBox="0 0 66.645 66.344" style="enable-background:new 0 0 66.645 66.344;"
	 xml:space="preserve">
<g>
	<path d="M66.645,66.344l-19.454-3.367c-4.428,2.096-9.176,3.158-14.123,3.158C14.834,66.135,0,51.301,0,33.067S14.834,0,33.068,0
		s33.068,14.834,33.068,33.067c0,4.95-1.063,9.7-3.162,14.128L66.645,66.344z M33.068,4C17.04,4,4,17.039,4,33.067
		s13.04,29.067,29.068,29.067c4.546,0,8.899-1.02,12.938-3.029l0.586-0.293l15.035,2.604l-2.835-14.785l0.302-0.605
		c2.018-4.043,3.041-8.402,3.041-12.958C62.136,17.039,49.096,4,33.068,4z"/>
</g>
<g>
</g>
<g>
</g>
<g>
</g>
<g>
</g>
<g>
</g>
<g>
</g>
<g>
</g>
<g>
</g>
<g>
</g>
<g>
</g>
<g>
</g>
<g>
</g>
<g>
</g>
<g>
</g>
<g>
</g>
</svg>
