<?xml version="1.0" encoding="utf-8"?>
<!-- Generator: Adobe Illustrator 16.0.4, SVG Export Plug-In . SVG Version: 6.00 Build 0)  -->
<!DOCTYPE svg PUBLIC "-//W3C//DTD SVG 1.1//EN" "http://www.w3.org/Graphics/SVG/1.1/DTD/svg11.dtd">
<svg version="1.1" id="Capa_1" xmlns="http://www.w3.org/2000/svg" xmlns:xlink="http://www.w3.org/1999/xlink" x="0px" y="0px"
	 width="66.137px" height="66.136px" viewBox="0 0 66.137 66.136" enable-background="new 0 0 66.137 66.136" xml:space="preserve">
<path d="M33.068,0C14.834,0,0,14.834,0,33.068c0,18.234,14.834,33.068,33.068,33.068s33.068-14.834,33.068-33.068
	C66.136,14.834,51.302,0,33.068,0z M33.068,62.136C17.04,62.136,4,49.096,4,33.068C4,17.04,17.04,4,33.068,4
	s29.068,13.04,29.068,29.068C62.136,49.096,49.096,62.136,33.068,62.136z M45.124,23.841l-9.227,9.227l9.227,9.226l-2.829,2.829
	l-9.226-9.227l-9.226,9.227l-2.829-2.828l9.227-9.227l-9.228-9.228l2.829-2.829l9.228,9.228l9.227-9.227L45.124,23.841z"/>
</svg>
