<?xml version="1.0" encoding="iso-8859-1"?>
<!-- Generator: Adobe Illustrator 16.0.4, SVG Export Plug-In . SVG Version: 6.00 Build 0)  -->
<!DOCTYPE svg PUBLIC "-//W3C//DTD SVG 1.1//EN" "http://www.w3.org/Graphics/SVG/1.1/DTD/svg11.dtd">
<svg version="1.1" id="Capa_1" xmlns="http://www.w3.org/2000/svg" xmlns:xlink="http://www.w3.org/1999/xlink" x="0px" y="0px"
	 width="66.136px" height="66.135px" viewBox="0 0 66.136 66.135" style="enable-background:new 0 0 66.136 66.135;"
	 xml:space="preserve">
<g>
	<path d="M33.068,66.135C14.834,66.135,0,51.301,0,33.068C0,14.834,14.834,0,33.068,0s33.068,14.834,33.068,33.068
		C66.136,51.301,51.302,66.135,33.068,66.135z M33.068,4C17.04,4,4,17.04,4,33.068c0,16.027,13.04,29.066,29.068,29.066
		c16.028,0,29.068-13.039,29.068-29.066C62.136,17.04,49.096,4,33.068,4z"/>
	<g>
		<g>
			<path d="M28.055,36.592c0.099,1.096,0.378,1.936,0.838,2.521c0.845,1.06,2.312,1.589,4.399,1.589c1.242,0,2.335-0.265,3.28-0.795
				c0.945-0.529,1.417-1.348,1.417-2.456c0-0.84-0.377-1.479-1.132-1.917c-0.483-0.268-1.435-0.578-2.857-0.932l-2.654-0.658
				c-1.695-0.413-2.945-0.876-3.749-1.387c-1.436-0.889-2.153-2.119-2.153-3.689c0-1.851,0.676-3.348,2.026-4.492
				c1.351-1.145,3.168-1.717,5.451-1.717c2.986,0,5.139,0.863,6.459,2.593c0.827,1.096,1.228,2.276,1.203,3.543h-3.104
				c-0.062-0.739-0.331-1.41-0.804-2.017c-0.773-0.859-2.113-1.289-4.02-1.289c-1.271,0-2.234,0.236-2.888,0.709
				c-0.655,0.475-0.981,1.1-0.981,1.875c0,0.85,0.429,1.529,1.29,2.039c0.496,0.303,1.228,0.57,2.196,0.801l2.214,0.529
				c2.406,0.572,4.019,1.127,4.838,1.662c1.278,0.84,1.917,2.162,1.917,3.963c0,1.742-0.669,3.245-2.006,4.512
				c-1.338,1.266-3.375,1.898-6.111,1.898c-2.945,0-5.031-0.66-6.259-1.98c-1.226-1.321-1.883-2.956-1.969-4.904H28.055z"/>
			<path d="M33.123,43.977c-3.076,0-5.304-0.72-6.625-2.141c-1.304-1.404-2.011-3.162-2.102-5.222l-0.023-0.522h4.139l0.041,0.455
				c0.09,0.993,0.336,1.752,0.733,2.256c0.739,0.928,2.088,1.398,4.006,1.398c1.15,0,2.171-0.246,3.035-0.73
				c0.782-0.438,1.162-1.099,1.162-2.021c0-0.663-0.281-1.136-0.883-1.485c-0.296-0.164-1.018-0.453-2.727-0.878l-2.654-0.657
				c-1.763-0.431-3.039-0.905-3.897-1.451c-1.581-0.979-2.385-2.363-2.385-4.111c0-1.996,0.741-3.635,2.203-4.874
				c1.438-1.218,3.38-1.835,5.774-1.835c3.136,0,5.443,0.938,6.857,2.789c0.894,1.185,1.332,2.48,1.306,3.856l-0.01,0.49h-4.054
				l-0.039-0.458c-0.055-0.645-0.284-1.217-0.7-1.75c-0.648-0.72-1.876-1.098-3.625-1.098c-1.158,0-2.031,0.207-2.595,0.615
				c-0.521,0.377-0.774,0.857-0.774,1.469c0,0.666,0.342,1.191,1.044,1.608c0.455,0.278,1.145,0.527,2.057,0.745l2.214,0.529
				c2.484,0.592,4.119,1.157,4.995,1.73c1.423,0.935,2.144,2.408,2.144,4.381c0,1.876-0.728,3.516-2.163,4.875
				C38.15,43.292,35.978,43.977,33.123,43.977z M25.433,37.092c0.167,1.592,0.77,2.957,1.797,4.064
				c1.123,1.208,3.106,1.82,5.892,1.82c2.591,0,4.532-0.593,5.768-1.762c1.245-1.179,1.85-2.535,1.85-4.148
				c0-1.637-0.554-2.797-1.692-3.545c-0.767-0.501-2.341-1.037-4.679-1.594l-2.215-0.529c-1.029-0.246-1.794-0.527-2.34-0.861
				c-1.013-0.6-1.529-1.43-1.529-2.465c0-0.942,0.4-1.709,1.188-2.279c0.738-0.534,1.809-0.805,3.181-0.805
				c2.045,0,3.523,0.49,4.391,1.455c0.451,0.577,0.738,1.193,0.867,1.851h2.156c-0.075-0.972-0.433-1.873-1.088-2.741
				c-1.213-1.589-3.252-2.395-6.061-2.395c-2.15,0-3.875,0.537-5.127,1.598c-1.245,1.055-1.85,2.399-1.85,4.111
				c0,1.398,0.627,2.465,1.917,3.264c0.76,0.483,1.971,0.929,3.604,1.327l2.656,0.658c1.478,0.366,2.453,0.687,2.979,0.979
				c0.913,0.529,1.39,1.342,1.39,2.354c0,1.298-0.563,2.271-1.673,2.893c-1.014,0.569-2.2,0.858-3.524,0.858
				c-2.238,0-3.85-0.598-4.791-1.777c-0.452-0.574-0.751-1.356-0.892-2.332H25.433z"/>
		</g>
	</g>
	<rect x="30.959" y="43" width="4" height="5.463"/>
	<rect x="30.959" y="17.336" width="4" height="5.463"/>
</g>
<g>
</g>
<g>
</g>
<g>
</g>
<g>
</g>
<g>
</g>
<g>
</g>
<g>
</g>
<g>
</g>
<g>
</g>
<g>
</g>
<g>
</g>
<g>
</g>
<g>
</g>
<g>
</g>
<g>
</g>
</svg>
