<?xml version="1.0" encoding="iso-8859-1"?>
<!-- Generator: Adobe Illustrator 16.0.4, SVG Export Plug-In . SVG Version: 6.00 Build 0)  -->
<!DOCTYPE svg PUBLIC "-//W3C//DTD SVG 1.1//EN" "http://www.w3.org/Graphics/SVG/1.1/DTD/svg11.dtd">
<svg version="1.1" id="Capa_1" xmlns="http://www.w3.org/2000/svg" xmlns:xlink="http://www.w3.org/1999/xlink" x="0px" y="0px"
	 width="66.137px" height="66.135px" viewBox="0 0 66.137 66.135" style="enable-background:new 0 0 66.137 66.135;"
	 xml:space="preserve">
<g>
	<path d="M33.068,66.135C14.834,66.135,0,51.301,0,33.068C0,14.834,14.834,0,33.068,0c18.233,0,33.068,14.834,33.068,33.068
		C66.137,51.301,51.302,66.135,33.068,66.135z M33.068,4C17.04,4,4,17.04,4,33.068s13.04,29.067,29.068,29.067
		c16.027,0,29.068-13.04,29.068-29.067S49.096,4,33.068,4z"/>
	<g>
		<path d="M55.036,11.099c12.133,12.133,12.133,31.804,0,43.937C42.902,67.169,23.232,67.168,11.1,55.035"/>
		<path d="M33.068,66.12c-8.469,0-16.936-3.223-23.383-9.67l2.828-2.828c11.334,11.333,29.773,11.334,41.108,0.001
			c11.333-11.334,11.333-29.775,0-41.109l2.828-2.828c12.894,12.893,12.894,33.872,0,46.765
			C50.005,62.896,41.535,66.119,33.068,66.12z"/>
	</g>
</g>
<g>
</g>
<g>
</g>
<g>
</g>
<g>
</g>
<g>
</g>
<g>
</g>
<g>
</g>
<g>
</g>
<g>
</g>
<g>
</g>
<g>
</g>
<g>
</g>
<g>
</g>
<g>
</g>
<g>
</g>
</svg>
