<?xml version="1.0" encoding="iso-8859-1"?>
<!-- Generator: Adobe Illustrator 16.0.4, SVG Export Plug-In . SVG Version: 6.00 Build 0)  -->
<!DOCTYPE svg PUBLIC "-//W3C//DTD SVG 1.1//EN" "http://www.w3.org/Graphics/SVG/1.1/DTD/svg11.dtd">
<svg version="1.1" id="Capa_1" xmlns="http://www.w3.org/2000/svg" xmlns:xlink="http://www.w3.org/1999/xlink" x="0px" y="0px"
	 width="66.137px" height="66.135px" viewBox="0 0 66.137 66.135" style="enable-background:new 0 0 66.137 66.135;"
	 xml:space="preserve">
<g>
	<path d="M33.066,66.135C14.834,66.135,0,51.301,0,33.068C0,14.834,14.834,0,33.066,0c18.234,0,33.07,14.834,33.07,33.068
		C66.137,51.301,51.301,66.135,33.066,66.135z M33.066,4C17.039,4,4,17.04,4,33.068c0,16.027,13.039,29.066,29.066,29.066
		c16.029,0,29.07-13.039,29.07-29.066C62.137,17.04,49.096,4,33.066,4z"/>
	<polygon points="50.617,60.169 46.617,60.169 46.617,27.83 18.52,27.83 18.52,60.169 14.52,60.169 14.52,23.83 50.617,23.83 	"/>
	<rect x="23.926" y="43" width="17.283" height="4"/>
	<rect x="23.926" y="34.067" width="17.283" height="4"/>
	<rect x="23.926" y="52.047" width="17.283" height="4"/>
</g>
<g>
</g>
<g>
</g>
<g>
</g>
<g>
</g>
<g>
</g>
<g>
</g>
<g>
</g>
<g>
</g>
<g>
</g>
<g>
</g>
<g>
</g>
<g>
</g>
<g>
</g>
<g>
</g>
<g>
</g>
</svg>
