<?xml version="1.0" encoding="iso-8859-1"?>
<!-- Generator: Adobe Illustrator 16.0.4, SVG Export Plug-In . SVG Version: 6.00 Build 0)  -->
<!DOCTYPE svg PUBLIC "-//W3C//DTD SVG 1.1//EN" "http://www.w3.org/Graphics/SVG/1.1/DTD/svg11.dtd">
<svg version="1.1" id="Capa_1" xmlns="http://www.w3.org/2000/svg" xmlns:xlink="http://www.w3.org/1999/xlink" x="0px" y="0px"
	 width="66.137px" height="66.135px" viewBox="0 0 66.137 66.135" style="enable-background:new 0 0 66.137 66.135;"
	 xml:space="preserve">
<g>
	<path d="M33.066,66.135C14.834,66.135,0,51.301,0,33.068C0,14.834,14.834,0,33.066,0c18.235,0,33.07,14.834,33.07,33.068
		C66.137,51.301,51.302,66.135,33.066,66.135z M33.066,4C17.039,4,4,17.04,4,33.068c0,16.027,13.039,29.066,29.066,29.066
		c16.029,0,29.07-13.039,29.07-29.066C62.137,17.04,49.096,4,33.066,4z"/>
	<g>
		<path d="M33.438,46.223c-0.125,0.094-0.25,0.156-0.406,0.156s-0.312-0.062-0.406-0.156l-9.344-9.375
			c-4.469-4.469-4.75-9.094-1.875-11.938c2.844-2.844,7.469-2.844,10.312,0c0.531,0.531,0.969,1.125,1.312,1.75
			c0.344-0.625,0.781-1.219,1.312-1.75c2.844-2.875,7.469-2.875,10.344,0c2.844,2.844,2.562,7.469-1.906,11.938L33.438,46.223z"/>
	</g>
</g>
<g>
</g>
<g>
</g>
<g>
</g>
<g>
</g>
<g>
</g>
<g>
</g>
<g>
</g>
<g>
</g>
<g>
</g>
<g>
</g>
<g>
</g>
<g>
</g>
<g>
</g>
<g>
</g>
<g>
</g>
</svg>
