<?xml version="1.0" encoding="utf-8"?>
<!-- Generator: Adobe Illustrator 16.0.4, SVG Export Plug-In . SVG Version: 6.00 Build 0)  -->
<!DOCTYPE svg PUBLIC "-//W3C//DTD SVG 1.1//EN" "http://www.w3.org/Graphics/SVG/1.1/DTD/svg11.dtd">
<svg version="1.1" id="Capa_1" xmlns="http://www.w3.org/2000/svg" xmlns:xlink="http://www.w3.org/1999/xlink" x="0px" y="0px"
	 width="69.514px" height="66.135px" viewBox="0 0 69.514 66.135" enable-background="new 0 0 69.514 66.135" xml:space="preserve">
<path d="M69.514,61.619l-9.467-9.467c3.829-5.396,6.089-11.979,6.089-19.084C66.136,14.834,51.302,0,33.068,0
	C14.834,0,0,14.834,0,33.068c0,18.233,14.834,33.067,33.067,33.067c9.686,0,18.411-4.186,24.464-10.842l9.154,9.154L69.514,61.619z
	 M33.068,62.134C17.04,62.134,4,49.095,4,33.068C4,17.04,17.04,4,33.068,4c16.028,0,29.068,13.04,29.068,29.068
	C62.136,49.095,49.096,62.134,33.068,62.134z M35.07,31.067h13.049v4H35.07v13.05h-4v-13.05H18.021v-4H31.07V18.02h4V31.067z"/>
</svg>
