<?xml version="1.0" encoding="iso-8859-1"?>
<!-- Generator: Adobe Illustrator 16.0.4, SVG Export Plug-In . SVG Version: 6.00 Build 0)  -->
<!DOCTYPE svg PUBLIC "-//W3C//DTD SVG 1.1//EN" "http://www.w3.org/Graphics/SVG/1.1/DTD/svg11.dtd">
<svg version="1.1" id="Capa_1" xmlns="http://www.w3.org/2000/svg" xmlns:xlink="http://www.w3.org/1999/xlink" x="0px" y="0px"
	 width="66.136px" height="66.135px" viewBox="0 0 66.136 66.135" style="enable-background:new 0 0 66.136 66.135;"
	 xml:space="preserve">
<g>
	<path d="M33.068,66.135C14.834,66.135,0,51.301,0,33.067S14.834,0,33.068,0s33.068,14.834,33.068,33.067
		S51.302,66.135,33.068,66.135z M33.068,4C17.04,4,4,17.039,4,33.067s13.04,29.067,29.068,29.067s29.068-13.039,29.068-29.067
		S49.096,4,33.068,4z"/>
	<rect x="19.55" y="20.104" width="9.571" height="9.57"/>
	<rect x="36.55" y="20.104" width="9.571" height="9.57"/>
	<rect x="20.015" y="36.461" width="9.571" height="9.57"/>
	<rect x="37.015" y="36.461" width="9.571" height="9.57"/>
</g>
<g>
</g>
<g>
</g>
<g>
</g>
<g>
</g>
<g>
</g>
<g>
</g>
<g>
</g>
<g>
</g>
<g>
</g>
<g>
</g>
<g>
</g>
<g>
</g>
<g>
</g>
<g>
</g>
<g>
</g>
</svg>
