<?xml version="1.0" encoding="utf-8"?>
<!-- Generator: Adobe Illustrator 16.0.4, SVG Export Plug-In . SVG Version: 6.00 Build 0)  -->
<!DOCTYPE svg PUBLIC "-//W3C//DTD SVG 1.1//EN" "http://www.w3.org/Graphics/SVG/1.1/DTD/svg11.dtd">
<svg version="1.1" id="Capa_1" xmlns="http://www.w3.org/2000/svg" xmlns:xlink="http://www.w3.org/1999/xlink" x="0px" y="0px"
	 width="69.514px" height="66.135px" viewBox="0 0 69.514 66.135" enable-background="new 0 0 69.514 66.135" xml:space="preserve">
<path d="M69.513,61.619l-9.466-9.466c3.828-5.396,6.089-11.98,6.089-19.085C66.136,14.834,51.302,0,33.068,0S0,14.834,0,33.068
	c0,18.233,14.834,33.067,33.068,33.067c9.685,0,18.41-4.185,24.464-10.841l9.153,9.153L69.513,61.619z M33.068,62.134
	C17.04,62.134,4,49.095,4,33.068C4,17.04,17.04,4,33.068,4s29.068,13.04,29.068,29.068C62.136,49.095,49.096,62.134,33.068,62.134z
	 M18.021,31.067h30.097v4H18.021V31.067z"/>
</svg>
