<?xml version="1.0" encoding="utf-8"?>
<!-- Generator: Adobe Illustrator 16.0.4, SVG Export Plug-In . SVG Version: 6.00 Build 0)  -->
<!DOCTYPE svg PUBLIC "-//W3C//DTD SVG 1.1//EN" "http://www.w3.org/Graphics/SVG/1.1/DTD/svg11.dtd">
<svg version="1.1" id="Capa_1" xmlns="http://www.w3.org/2000/svg" xmlns:xlink="http://www.w3.org/1999/xlink" x="0px" y="0px"
	 width="66.137px" height="66.135px" viewBox="0 0 66.137 66.135" enable-background="new 0 0 66.137 66.135" xml:space="preserve">
<path d="M33.068,0C14.834,0,0,14.834,0,33.068c0,18.233,14.834,33.067,33.068,33.067s33.068-14.834,33.068-33.067
	C66.136,14.834,51.302,0,33.068,0z M33.068,62.134C17.04,62.134,4,49.095,4,33.068C4,17.04,17.04,4,33.068,4
	s29.068,13.04,29.068,29.068C62.136,49.095,49.096,62.134,33.068,62.134z M35.896,33.068l6.79,6.791l0.418-2.746l3.954,0.603
	l-1.233,8.108l-8.11,1.234l-0.601-3.953l2.743-0.418l-6.79-6.79l-6.82,6.819l2.548,0.389l-0.601,3.953l-8.108-1.233l-1.232-8.109
	l3.954-0.603l0.447,2.939l6.984-6.983l-6.985-6.985l-0.447,2.938l-3.954-0.601l1.232-8.108l8.109-1.233l0.602,3.954l-2.547,0.388
	l6.819,6.819l6.789-6.789l-2.743-0.417l0.602-3.955l8.108,1.234l1.234,8.109l-3.954,0.601l-0.418-2.744L35.896,33.068z"/>
</svg>
