<?xml version="1.0" encoding="utf-8"?>
<!-- Generator: Adobe Illustrator 16.0.4, SVG Export Plug-In . SVG Version: 6.00 Build 0)  -->
<!DOCTYPE svg PUBLIC "-//W3C//DTD SVG 1.1//EN" "http://www.w3.org/Graphics/SVG/1.1/DTD/svg11.dtd">
<svg version="1.1" id="Capa_1" xmlns="http://www.w3.org/2000/svg" xmlns:xlink="http://www.w3.org/1999/xlink" x="0px" y="0px"
	 width="66.137px" height="66.135px" viewBox="0 0 66.137 66.135" enable-background="new 0 0 66.137 66.135" xml:space="preserve">
<path d="M33.068,0C14.834,0,0,14.834,0,33.068c0,18.233,14.834,33.067,33.068,33.067s33.068-14.834,33.068-33.067
	C66.136,14.834,51.302,0,33.068,0z M33.068,62.134C17.04,62.134,4,49.095,4,33.068C4,17.04,17.04,4,33.068,4
	s29.068,13.04,29.068,29.068C62.136,49.095,49.096,62.134,33.068,62.134z M42.915,41.015l1.252,4.2l-4.104-1.35L25.416,29.219
	l1.378-1.378l1.475-1.474L42.915,41.015z M26.078,24.201l-2.828,2.829l-2.898-2.898l2.828-2.829L26.078,24.201z"/>
</svg>
