<?xml version="1.0" encoding="iso-8859-1"?>
<!-- Generator: Adobe Illustrator 16.0.4, SVG Export Plug-In . SVG Version: 6.00 Build 0)  -->
<!DOCTYPE svg PUBLIC "-//W3C//DTD SVG 1.1//EN" "http://www.w3.org/Graphics/SVG/1.1/DTD/svg11.dtd">
<svg version="1.1" id="Capa_1" xmlns="http://www.w3.org/2000/svg" xmlns:xlink="http://www.w3.org/1999/xlink" x="0px" y="0px"
	 width="66.137px" height="66.135px" viewBox="0 0 66.137 66.135" style="enable-background:new 0 0 66.137 66.135;"
	 xml:space="preserve">
<g>
	<path d="M33.068,66.135C14.834,66.135,0,51.301,0,33.068C0,14.834,14.834,0,33.068,0c18.233,0,33.068,14.834,33.068,33.068
		C66.137,51.301,51.302,66.135,33.068,66.135z M33.068,4C17.04,4,4,17.04,4,33.068s13.04,29.067,29.068,29.067
		c16.027,0,29.068-13.04,29.068-29.067S49.096,4,33.068,4z"/>
	<rect x="22.438" y="30.174" width="21.258" height="13.534"/>
	<path d="M39.957,36.264H26.178V22h13.779V36.264z M30.178,32.264h5.779V26h-5.779V32.264z"/>
</g>
<g>
</g>
<g>
</g>
<g>
</g>
<g>
</g>
<g>
</g>
<g>
</g>
<g>
</g>
<g>
</g>
<g>
</g>
<g>
</g>
<g>
</g>
<g>
</g>
<g>
</g>
<g>
</g>
<g>
</g>
</svg>
