<?xml version="1.0" encoding="utf-8"?>
<!-- Generator: Adobe Illustrator 16.0.4, SVG Export Plug-In . SVG Version: 6.00 Build 0)  -->
<!DOCTYPE svg PUBLIC "-//W3C//DTD SVG 1.1//EN" "http://www.w3.org/Graphics/SVG/1.1/DTD/svg11.dtd">
<svg version="1.1" id="Capa_1" xmlns="http://www.w3.org/2000/svg" xmlns:xlink="http://www.w3.org/1999/xlink" x="0px" y="0px"
	 width="66.137px" height="66.135px" viewBox="0 0 66.137 66.135" enable-background="new 0 0 66.137 66.135" xml:space="preserve">
<path d="M33.066,0C14.834,0,0,14.834,0,33.068c0,18.233,14.834,33.067,33.065,33.067c18.235,0,33.071-14.834,33.07-33.067
	C66.136,14.834,51.3,0,33.066,0z M33.066,4c7.297,0,13.968,2.708,19.078,7.164l-40.981,40.98C6.708,47.034,4,40.363,4,33.068
	C4,17.04,17.039,4,33.066,4z M33.066,62.135c-7.295,0-13.966-2.708-19.075-7.163l40.981-40.98c4.456,5.11,7.164,11.781,7.164,19.077
	C62.136,49.095,49.095,62.135,33.066,62.135z"/>
</svg>
