<?xml version="1.0" encoding="iso-8859-1"?>
<!-- Generator: Adobe Illustrator 16.0.4, SVG Export Plug-In . SVG Version: 6.00 Build 0)  -->
<!DOCTYPE svg PUBLIC "-//W3C//DTD SVG 1.1//EN" "http://www.w3.org/Graphics/SVG/1.1/DTD/svg11.dtd">
<svg version="1.1" id="Capa_1" xmlns="http://www.w3.org/2000/svg" xmlns:xlink="http://www.w3.org/1999/xlink" x="0px" y="0px"
	 width="66.136px" height="66.136px" viewBox="0 0 66.136 66.136" style="enable-background:new 0 0 66.136 66.136;"
	 xml:space="preserve">
<g>
	<path d="M33.068,66.136C14.834,66.136,0,51.302,0,33.068S14.834,0,33.068,0s33.068,14.834,33.068,33.068
		S51.302,66.136,33.068,66.136z M33.068,4C17.04,4,4,17.04,4,33.068s13.04,29.068,29.068,29.068s29.068-13.04,29.068-29.068
		S49.096,4,33.068,4z"/>
	<g>
		<rect x="19.878" y="31.72" width="22.471" height="4"/>
		<polygon points="37.582,46.17 34.36,43.799 41.78,33.717 34.36,23.634 37.582,21.263 46.746,33.717 		"/>
	</g>
</g>
<g>
</g>
<g>
</g>
<g>
</g>
<g>
</g>
<g>
</g>
<g>
</g>
<g>
</g>
<g>
</g>
<g>
</g>
<g>
</g>
<g>
</g>
<g>
</g>
<g>
</g>
<g>
</g>
<g>
</g>
</svg>
