<?xml version="1.0" encoding="iso-8859-1"?>
<!-- Generator: Adobe Illustrator 16.0.4, SVG Export Plug-In . SVG Version: 6.00 Build 0)  -->
<!DOCTYPE svg PUBLIC "-//W3C//DTD SVG 1.1//EN" "http://www.w3.org/Graphics/SVG/1.1/DTD/svg11.dtd">
<svg version="1.1" id="Capa_1" xmlns="http://www.w3.org/2000/svg" xmlns:xlink="http://www.w3.org/1999/xlink" x="0px" y="0px"
	 width="66.137px" height="66.135px" viewBox="0 0 66.137 66.135" style="enable-background:new 0 0 66.137 66.135;"
	 xml:space="preserve">
<g>
	<path d="M33.067,66.135C14.834,66.135,0,51.301,0,33.067S14.834,0,33.067,0c18.234,0,33.069,14.834,33.069,33.067
		S51.302,66.135,33.067,66.135z M33.067,4C17.039,4,4,17.039,4,33.067s13.039,29.067,29.067,29.067s29.069-13.039,29.069-29.067
		S49.096,4,33.067,4z"/>
	<circle cx="24.927" cy="24.824" r="4.334"/>
	<circle cx="41.21" cy="24.824" r="4.334"/>
	<path d="M20.613,47.245l-2.404-3.197c18.005-13.532,30.864,0.108,30.992,0.247l-2.943,2.709
		C45.831,46.546,35.658,35.938,20.613,47.245z"/>
</g>
<g>
</g>
<g>
</g>
<g>
</g>
<g>
</g>
<g>
</g>
<g>
</g>
<g>
</g>
<g>
</g>
<g>
</g>
<g>
</g>
<g>
</g>
<g>
</g>
<g>
</g>
<g>
</g>
<g>
</g>
</svg>
