<?xml version="1.0" encoding="iso-8859-1"?>
<!-- Generator: Adobe Illustrator 16.0.4, SVG Export Plug-In . SVG Version: 6.00 Build 0)  -->
<!DOCTYPE svg PUBLIC "-//W3C//DTD SVG 1.1//EN" "http://www.w3.org/Graphics/SVG/1.1/DTD/svg11.dtd">
<svg version="1.1" id="Capa_1" xmlns="http://www.w3.org/2000/svg" xmlns:xlink="http://www.w3.org/1999/xlink" x="0px" y="0px"
	 width="66.137px" height="66.135px" viewBox="0 0 66.137 66.135" style="enable-background:new 0 0 66.137 66.135;"
	 xml:space="preserve">
<g>
	<path d="M33.067,66.135C14.834,66.135,0,51.301,0,33.068C0,14.834,14.834,0,33.067,0c18.234,0,33.069,14.834,33.069,33.068
		C66.137,51.301,51.302,66.135,33.067,66.135z M33.067,4C17.04,4,4,17.04,4,33.068c0,16.027,13.04,29.066,29.067,29.066
		c16.029,0,29.069-13.039,29.069-29.066C62.137,17.04,49.097,4,33.067,4z"/>
	<circle cx="24.928" cy="24.824" r="4.335"/>
	<circle cx="41.211" cy="24.824" r="4.335"/>
	<rect x="18.52" y="40.847" width="30.099" height="4"/>
</g>
<g>
</g>
<g>
</g>
<g>
</g>
<g>
</g>
<g>
</g>
<g>
</g>
<g>
</g>
<g>
</g>
<g>
</g>
<g>
</g>
<g>
</g>
<g>
</g>
<g>
</g>
<g>
</g>
<g>
</g>
</svg>
