<?xml version="1.0" encoding="iso-8859-1"?>
<!-- Generator: Adobe Illustrator 16.0.4, SVG Export Plug-In . SVG Version: 6.00 Build 0)  -->
<!DOCTYPE svg PUBLIC "-//W3C//DTD SVG 1.1//EN" "http://www.w3.org/Graphics/SVG/1.1/DTD/svg11.dtd">
<svg version="1.1" id="Capa_1" xmlns="http://www.w3.org/2000/svg" xmlns:xlink="http://www.w3.org/1999/xlink" x="0px" y="0px"
	 width="66.137px" height="66.135px" viewBox="0 0 66.137 66.135" style="enable-background:new 0 0 66.137 66.135;"
	 xml:space="preserve">
<g>
	<path d="M33.066,66.135C14.834,66.135,0,51.301,0,33.068C0,14.834,14.834,0,33.066,0c18.235,0,33.07,14.834,33.07,33.068
		C66.137,51.301,51.302,66.135,33.066,66.135z M33.066,4C17.039,4,4,17.04,4,33.068c0,16.027,13.039,29.066,29.066,29.066
		c16.029,0,29.07-13.039,29.07-29.066C62.137,17.04,49.096,4,33.066,4z"/>
	<path d="M44.552,22.931l-8.368-2.593L19.348,37.174l5.48,5.48l5.127,5.127l16.836-16.836L44.552,22.931z M38.332,31.709
		c-1.644,0-2.976-1.332-2.976-2.977c0-1.643,1.332-2.976,2.976-2.976s2.977,1.333,2.977,2.976
		C41.309,30.377,39.976,31.709,38.332,31.709z"/>
</g>
<g>
</g>
<g>
</g>
<g>
</g>
<g>
</g>
<g>
</g>
<g>
</g>
<g>
</g>
<g>
</g>
<g>
</g>
<g>
</g>
<g>
</g>
<g>
</g>
<g>
</g>
<g>
</g>
<g>
</g>
</svg>
