<?xml version="1.0" encoding="iso-8859-1"?>
<!-- Generator: Adobe Illustrator 16.0.4, SVG Export Plug-In . SVG Version: 6.00 Build 0)  -->
<!DOCTYPE svg PUBLIC "-//W3C//DTD SVG 1.1//EN" "http://www.w3.org/Graphics/SVG/1.1/DTD/svg11.dtd">
<svg version="1.1" id="Capa_1" xmlns="http://www.w3.org/2000/svg" xmlns:xlink="http://www.w3.org/1999/xlink" x="0px" y="0px"
	 width="66.136px" height="66.136px" viewBox="0 0 66.136 66.136" style="enable-background:new 0 0 66.136 66.136;"
	 xml:space="preserve">
<g>
	<path d="M33.068,66.136C14.834,66.136,0,51.302,0,33.068S14.834,0,33.068,0s33.068,14.834,33.068,33.068
		S51.302,66.136,33.068,66.136z M33.068,4C17.04,4,4,17.04,4,33.068s13.04,29.068,29.068,29.068s29.068-13.04,29.068-29.068
		S49.096,4,33.068,4z"/>
	<rect x="18.02" y="41.679" width="30.098" height="4"/>
	<rect x="31.071" y="19.752" width="4" height="15.099"/>
	<polygon points="39.455,25.649 33.069,20.95 26.684,25.649 24.312,22.427 33.069,15.984 41.826,22.427 	"/>
</g>
<g>
</g>
<g>
</g>
<g>
</g>
<g>
</g>
<g>
</g>
<g>
</g>
<g>
</g>
<g>
</g>
<g>
</g>
<g>
</g>
<g>
</g>
<g>
</g>
<g>
</g>
<g>
</g>
<g>
</g>
</svg>
