<?xml version="1.0" encoding="iso-8859-1"?>
<!-- Generator: Adobe Illustrator 16.0.4, SVG Export Plug-In . SVG Version: 6.00 Build 0)  -->
<!DOCTYPE svg PUBLIC "-//W3C//DTD SVG 1.1//EN" "http://www.w3.org/Graphics/SVG/1.1/DTD/svg11.dtd">
<svg version="1.1" id="Capa_1" xmlns="http://www.w3.org/2000/svg" xmlns:xlink="http://www.w3.org/1999/xlink" x="0px" y="0px"
	 width="66.136px" height="66.135px" viewBox="0 0 66.136 66.135" style="enable-background:new 0 0 66.136 66.135;"
	 xml:space="preserve">
<g>
	<path d="M33.068,66.135C14.834,66.135,0,51.301,0,33.067S14.834,0,33.068,0s33.068,14.834,33.068,33.067
		S51.302,66.135,33.068,66.135z M33.068,4C17.04,4,4,17.039,4,33.067s13.04,29.067,29.068,29.067s29.068-13.039,29.068-29.067
		S49.096,4,33.068,4z"/>
	<path d="M32.859,46.972c-10.953,0-18.155-12.385-18.457-12.912l-0.567-0.992l0.567-0.992c0.301-0.527,7.505-12.912,18.457-12.912
		c6.461,0,12.654,4.3,18.407,12.782l0.761,1.122l-0.761,1.122C45.514,42.672,39.321,46.972,32.859,46.972z M18.507,33.067
		c1.803,2.688,7.301,9.904,14.353,9.904c4.789,0,9.601-3.331,14.313-9.904c-4.713-6.573-9.524-9.904-14.313-9.904
		C25.81,23.163,20.312,30.377,18.507,33.067z"/>
	<circle cx="32.875" cy="33.067" r="4.335"/>
</g>
<g>
</g>
<g>
</g>
<g>
</g>
<g>
</g>
<g>
</g>
<g>
</g>
<g>
</g>
<g>
</g>
<g>
</g>
<g>
</g>
<g>
</g>
<g>
</g>
<g>
</g>
<g>
</g>
<g>
</g>
</svg>
