<?xml version="1.0" encoding="iso-8859-1"?>
<!-- Generator: Adobe Illustrator 16.0.4, SVG Export Plug-In . SVG Version: 6.00 Build 0)  -->
<!DOCTYPE svg PUBLIC "-//W3C//DTD SVG 1.1//EN" "http://www.w3.org/Graphics/SVG/1.1/DTD/svg11.dtd">
<svg version="1.1" id="Capa_1" xmlns="http://www.w3.org/2000/svg" xmlns:xlink="http://www.w3.org/1999/xlink" x="0px" y="0px"
	 width="66.137px" height="66.135px" viewBox="0 0 66.137 66.135" style="enable-background:new 0 0 66.137 66.135;"
	 xml:space="preserve">
<g>
	<path d="M33.066,66.135C14.833,66.135,0,51.301,0,33.068C0,14.834,14.833,0,33.066,0c18.235,0,33.07,14.834,33.07,33.068
		C66.137,51.301,51.302,66.135,33.066,66.135z M33.066,4C17.039,4,4,17.04,4,33.068c0,16.027,13.039,29.066,29.066,29.066
		c16.029,0,29.07-13.039,29.07-29.066C62.137,17.04,49.096,4,33.066,4z"/>
	<polygon points="29.425,44.521 18.599,28.311 2.771,34.914 1.229,31.223 20.097,23.352 29.86,37.971 41.751,24.455 51.87,33.99 
		63.913,33.059 64.222,37.047 50.415,38.115 42.021,30.205 	"/>
</g>
<g>
</g>
<g>
</g>
<g>
</g>
<g>
</g>
<g>
</g>
<g>
</g>
<g>
</g>
<g>
</g>
<g>
</g>
<g>
</g>
<g>
</g>
<g>
</g>
<g>
</g>
<g>
</g>
<g>
</g>
</svg>
